<?xml version="1.0" encoding="UTF-8" standalone="no"?>
<!DOCTYPE svg PUBLIC "-//W3C//DTD SVG 1.1//EN"
 "http://www.w3.org/Graphics/SVG/1.1/DTD/svg11.dtd">
<!-- Generated by graphviz version 2.40.1 (20161225.0304)
 -->
<!-- Title: dependencies Pages: 1 -->
<svg width="687pt" height="211pt"
 viewBox="0.00 0.00 687.00 211.00" xmlns="http://www.w3.org/2000/svg" xmlns:xlink="http://www.w3.org/1999/xlink">
<g id="graph0" class="graph" transform="scale(1 1) rotate(0) translate(4 207)">
<title>dependencies</title>
<polygon fill="#ffffff" stroke="transparent" points="-4,4 -4,-207 683,-207 683,4 -4,4"/>
<text text-anchor="start" x="318.5091" y="-42.4" font-family="sans-serif" font-weight="bold" font-size="14.00" fill="#000000">Legend</text>
<polygon fill="#ffffb3" stroke="transparent" points="105.5,-10 105.5,-30 125.5,-30 125.5,-10 105.5,-10"/>
<text text-anchor="start" x="129.129" y="-15.4" font-family="sans-serif" font-size="14.00" fill="#000000"> &#160;Declarations</text>
<polygon fill="#8dd3c7" stroke="transparent" points="218.5,-10 218.5,-30 238.5,-30 238.5,-10 218.5,-10"/>
<text text-anchor="start" x="242.2251" y="-15.4" font-family="sans-serif" font-size="14.00" fill="#000000"> &#160;Module</text>
<polygon fill="#80b1d3" stroke="transparent" points="304.5,-10 304.5,-30 324.5,-30 324.5,-10 304.5,-10"/>
<text text-anchor="start" x="328.2812" y="-15.4" font-family="sans-serif" font-size="14.00" fill="#000000"> &#160;Bootstrap</text>
<polygon fill="#fdb462" stroke="transparent" points="401.5,-10 401.5,-30 421.5,-30 421.5,-10 401.5,-10"/>
<text text-anchor="start" x="425.1732" y="-15.4" font-family="sans-serif" font-size="14.00" fill="#000000"> &#160;Providers</text>
<polygon fill="#fb8072" stroke="transparent" points="497.5,-10 497.5,-30 517.5,-30 517.5,-10 497.5,-10"/>
<text text-anchor="start" x="521.2258" y="-15.4" font-family="sans-serif" font-size="14.00" fill="#000000"> &#160;Exports</text>
<g id="clust1" class="cluster">
<title>cluster_NotesPageModule</title>
<polygon fill="none" stroke="#000000" stroke-dasharray="1,5" points="8,-70 8,-195 671,-195 671,-70 8,-70"/>
</g>
<g id="clust2" class="cluster">
<title>cluster_NotesPageModule_declarations</title>
<polygon fill="none" stroke="#000000" points="571,-78 571,-130 663,-130 663,-78 571,-78"/>
</g>
<g id="clust4" class="cluster">
<title>cluster_NotesPageModule_imports</title>
<polygon fill="none" stroke="#000000" points="16,-78 16,-130 563,-130 563,-78 16,-78"/>
</g>
<!-- NotesPage -->
<g id="node1" class="node">
<title>NotesPage</title>
<polygon fill="#ffffb3" stroke="#000000" points="654.8683,-122 579.1317,-122 579.1317,-86 654.8683,-86 654.8683,-122"/>
<text text-anchor="middle" x="617" y="-99.8" font-family="Times,serif" font-size="14.00" fill="#000000">NotesPage</text>
</g>
<!-- NotesPageModule -->
<g id="node2" class="node">
<title>NotesPageModule</title>
<polygon fill="#8dd3c7" stroke="#000000" points="437.9187,-187 434.9187,-191 413.9187,-191 410.9187,-187 318.0813,-187 318.0813,-151 437.9187,-151 437.9187,-187"/>
<text text-anchor="middle" x="378" y="-164.8" font-family="Times,serif" font-size="14.00" fill="#000000">NotesPageModule</text>
</g>
<!-- NotesPage&#45;&gt;NotesPageModule -->
<g id="edge1" class="edge">
<title>NotesPage&#45;&gt;NotesPageModule</title>
<path fill="none" stroke="#000000" d="M617,-122.1061C617,-141.3391 617,-169 617,-169 617,-169 448.0013,-169 448.0013,-169"/>
<polygon fill="#000000" stroke="#000000" points="448.0013,-165.5001 438.0013,-169 448.0013,-172.5001 448.0013,-165.5001"/>
</g>
<!-- CommonModule -->
<g id="node3" class="node">
<title>CommonModule</title>
<polygon fill="#8dd3c7" stroke="#000000" points="554.6681,-122 551.6681,-126 530.6681,-126 527.6681,-122 443.3319,-122 443.3319,-86 554.6681,-86 554.6681,-122"/>
<text text-anchor="middle" x="499" y="-99.8" font-family="Times,serif" font-size="14.00" fill="#000000">CommonModule</text>
</g>
<!-- CommonModule&#45;&gt;NotesPageModule -->
<g id="edge2" class="edge">
<title>CommonModule&#45;&gt;NotesPageModule</title>
<path fill="none" stroke="#000000" d="M443.1054,-104C436.2973,-104 431.6866,-104 431.6866,-104 431.6866,-104 431.6866,-140.8939 431.6866,-140.8939"/>
<polygon fill="#000000" stroke="#000000" points="428.1866,-140.8938 431.6866,-150.8939 435.1866,-140.8939 428.1866,-140.8938"/>
</g>
<!-- FormsModule -->
<g id="node4" class="node">
<title>FormsModule</title>
<polygon fill="#8dd3c7" stroke="#000000" points="425.8288,-122 422.8288,-126 401.8288,-126 398.8288,-122 330.1712,-122 330.1712,-86 425.8288,-86 425.8288,-122"/>
<text text-anchor="middle" x="378" y="-99.8" font-family="Times,serif" font-size="14.00" fill="#000000">FormsModule</text>
</g>
<!-- FormsModule&#45;&gt;NotesPageModule -->
<g id="edge3" class="edge">
<title>FormsModule&#45;&gt;NotesPageModule</title>
<path fill="none" stroke="#000000" d="M378,-122.1061C378,-122.1061 378,-140.991 378,-140.991"/>
<polygon fill="#000000" stroke="#000000" points="374.5001,-140.9909 378,-150.991 381.5001,-140.991 374.5001,-140.9909"/>
</g>
<!-- IonicModule -->
<g id="node5" class="node">
<title>IonicModule</title>
<polygon fill="#8dd3c7" stroke="#000000" points="312.3162,-122 309.3162,-126 288.3162,-126 285.3162,-122 223.6838,-122 223.6838,-86 312.3162,-86 312.3162,-122"/>
<text text-anchor="middle" x="268" y="-99.8" font-family="Times,serif" font-size="14.00" fill="#000000">IonicModule</text>
</g>
<!-- IonicModule&#45;&gt;NotesPageModule -->
<g id="edge4" class="edge">
<title>IonicModule&#45;&gt;NotesPageModule</title>
<path fill="none" stroke="#000000" d="M312.3708,-104C319.3503,-104 324.3135,-104 324.3135,-104 324.3135,-104 324.3135,-140.8939 324.3135,-140.8939"/>
<polygon fill="#000000" stroke="#000000" points="320.8135,-140.8938 324.3135,-150.8939 327.8135,-140.8939 320.8135,-140.8938"/>
</g>
<!-- RouterModule.forChild(args) -->
<g id="node6" class="node">
<title>RouterModule.forChild(args)</title>
<polygon fill="#8dd3c7" stroke="#000000" points="205.7323,-122 202.7323,-126 181.7323,-126 178.7323,-122 24.2677,-122 24.2677,-86 205.7323,-86 205.7323,-122"/>
<text text-anchor="middle" x="115" y="-99.8" font-family="Times,serif" font-size="14.00" fill="#000000">RouterModule.forChild(args)</text>
</g>
<!-- RouterModule.forChild(args)&#45;&gt;NotesPageModule -->
<g id="edge5" class="edge">
<title>RouterModule.forChild(args)&#45;&gt;NotesPageModule</title>
<path fill="none" stroke="#000000" d="M115,-122.1061C115,-141.3391 115,-169 115,-169 115,-169 307.9921,-169 307.9921,-169"/>
<polygon fill="#000000" stroke="#000000" points="307.9922,-172.5001 317.9921,-169 307.9921,-165.5001 307.9922,-172.5001"/>
</g>
</g>
</svg>
