<?xml version="1.0" encoding="UTF-8" standalone="no"?>
<!DOCTYPE svg PUBLIC "-//W3C//DTD SVG 1.1//EN"
 "http://www.w3.org/Graphics/SVG/1.1/DTD/svg11.dtd">
<!-- Generated by graphviz version 2.40.1 (20161225.0304)
 -->
<!-- Title: dependencies Pages: 1 -->
<svg width="658pt" height="211pt"
 viewBox="0.00 0.00 658.00 211.00" xmlns="http://www.w3.org/2000/svg" xmlns:xlink="http://www.w3.org/1999/xlink">
<g id="graph0" class="graph" transform="scale(1 1) rotate(0) translate(4 207)">
<title>dependencies</title>
<polygon fill="#ffffff" stroke="transparent" points="-4,4 -4,-207 654,-207 654,4 -4,4"/>
<text text-anchor="start" x="304.0091" y="-42.4" font-family="sans-serif" font-weight="bold" font-size="14.00" fill="#000000">Legend</text>
<polygon fill="#ffffb3" stroke="transparent" points="91,-10 91,-30 111,-30 111,-10 91,-10"/>
<text text-anchor="start" x="114.629" y="-15.4" font-family="sans-serif" font-size="14.00" fill="#000000"> &#160;Declarations</text>
<polygon fill="#8dd3c7" stroke="transparent" points="204,-10 204,-30 224,-30 224,-10 204,-10"/>
<text text-anchor="start" x="227.7251" y="-15.4" font-family="sans-serif" font-size="14.00" fill="#000000"> &#160;Module</text>
<polygon fill="#80b1d3" stroke="transparent" points="290,-10 290,-30 310,-30 310,-10 290,-10"/>
<text text-anchor="start" x="313.7812" y="-15.4" font-family="sans-serif" font-size="14.00" fill="#000000"> &#160;Bootstrap</text>
<polygon fill="#fdb462" stroke="transparent" points="387,-10 387,-30 407,-30 407,-10 387,-10"/>
<text text-anchor="start" x="410.6732" y="-15.4" font-family="sans-serif" font-size="14.00" fill="#000000"> &#160;Providers</text>
<polygon fill="#fb8072" stroke="transparent" points="483,-10 483,-30 503,-30 503,-10 483,-10"/>
<text text-anchor="start" x="506.7258" y="-15.4" font-family="sans-serif" font-size="14.00" fill="#000000"> &#160;Exports</text>
<g id="clust1" class="cluster">
<title>cluster_TabsPageModule</title>
<polygon fill="none" stroke="#000000" stroke-dasharray="1,5" points="8,-70 8,-195 642,-195 642,-70 8,-70"/>
</g>
<g id="clust2" class="cluster">
<title>cluster_TabsPageModule_declarations</title>
<polygon fill="none" stroke="#000000" points="548,-78 548,-130 634,-130 634,-78 548,-78"/>
</g>
<g id="clust4" class="cluster">
<title>cluster_TabsPageModule_imports</title>
<polygon fill="none" stroke="#000000" points="16,-78 16,-130 540,-130 540,-78 16,-78"/>
</g>
<!-- TabsPage -->
<g id="node1" class="node">
<title>TabsPage</title>
<polygon fill="#ffffb3" stroke="#000000" points="626.4249,-122 555.5751,-122 555.5751,-86 626.4249,-86 626.4249,-122"/>
<text text-anchor="middle" x="591" y="-99.8" font-family="Times,serif" font-size="14.00" fill="#000000">TabsPage</text>
</g>
<!-- TabsPageModule -->
<g id="node2" class="node">
<title>TabsPageModule</title>
<polygon fill="#8dd3c7" stroke="#000000" points="426.9734,-187 423.9734,-191 402.9734,-191 399.9734,-187 313.0266,-187 313.0266,-151 426.9734,-151 426.9734,-187"/>
<text text-anchor="middle" x="370" y="-164.8" font-family="Times,serif" font-size="14.00" fill="#000000">TabsPageModule</text>
</g>
<!-- TabsPage&#45;&gt;TabsPageModule -->
<g id="edge1" class="edge">
<title>TabsPage&#45;&gt;TabsPageModule</title>
<path fill="none" stroke="#000000" d="M591,-122.2843C591,-143.3211 591,-175 591,-175 591,-175 437.2004,-175 437.2004,-175"/>
<polygon fill="#000000" stroke="#000000" points="437.2004,-171.5001 427.2004,-175 437.2004,-178.5001 437.2004,-171.5001"/>
</g>
<!-- IonicModule -->
<g id="node3" class="node">
<title>IonicModule</title>
<polygon fill="#8dd3c7" stroke="#000000" points="532.3162,-122 529.3162,-126 508.3162,-126 505.3162,-122 443.6838,-122 443.6838,-86 532.3162,-86 532.3162,-122"/>
<text text-anchor="middle" x="488" y="-99.8" font-family="Times,serif" font-size="14.00" fill="#000000">IonicModule</text>
</g>
<!-- IonicModule&#45;&gt;TabsPageModule -->
<g id="edge2" class="edge">
<title>IonicModule&#45;&gt;TabsPageModule</title>
<path fill="none" stroke="#000000" d="M488,-122.0225C488,-139.3734 488,-163 488,-163 488,-163 437.2717,-163 437.2717,-163"/>
<polygon fill="#000000" stroke="#000000" points="437.2717,-159.5001 427.2717,-163 437.2717,-166.5001 437.2717,-159.5001"/>
</g>
<!-- CommonModule -->
<g id="node4" class="node">
<title>CommonModule</title>
<polygon fill="#8dd3c7" stroke="#000000" points="425.6681,-122 422.6681,-126 401.6681,-126 398.6681,-122 314.3319,-122 314.3319,-86 425.6681,-86 425.6681,-122"/>
<text text-anchor="middle" x="370" y="-99.8" font-family="Times,serif" font-size="14.00" fill="#000000">CommonModule</text>
</g>
<!-- CommonModule&#45;&gt;TabsPageModule -->
<g id="edge3" class="edge">
<title>CommonModule&#45;&gt;TabsPageModule</title>
<path fill="none" stroke="#000000" d="M370,-122.1061C370,-122.1061 370,-140.991 370,-140.991"/>
<polygon fill="#000000" stroke="#000000" points="366.5001,-140.9909 370,-150.991 373.5001,-140.991 366.5001,-140.9909"/>
</g>
<!-- FormsModule -->
<g id="node5" class="node">
<title>FormsModule</title>
<polygon fill="#8dd3c7" stroke="#000000" points="296.8288,-122 293.8288,-126 272.8288,-126 269.8288,-122 201.1712,-122 201.1712,-86 296.8288,-86 296.8288,-122"/>
<text text-anchor="middle" x="249" y="-99.8" font-family="Times,serif" font-size="14.00" fill="#000000">FormsModule</text>
</g>
<!-- FormsModule&#45;&gt;TabsPageModule -->
<g id="edge4" class="edge">
<title>FormsModule&#45;&gt;TabsPageModule</title>
<path fill="none" stroke="#000000" d="M249,-122.0225C249,-139.3734 249,-163 249,-163 249,-163 302.6891,-163 302.6891,-163"/>
<polygon fill="#000000" stroke="#000000" points="302.6892,-166.5001 312.6891,-163 302.6891,-159.5001 302.6892,-166.5001"/>
</g>
<!-- TabsPageRoutingModule -->
<g id="node6" class="node">
<title>TabsPageRoutingModule</title>
<polygon fill="#8dd3c7" stroke="#000000" points="183.5912,-122 180.5912,-126 159.5912,-126 156.5912,-122 24.4088,-122 24.4088,-86 183.5912,-86 183.5912,-122"/>
<text text-anchor="middle" x="104" y="-99.8" font-family="Times,serif" font-size="14.00" fill="#000000">TabsPageRoutingModule</text>
</g>
<!-- TabsPageRoutingModule&#45;&gt;TabsPageModule -->
<g id="edge5" class="edge">
<title>TabsPageRoutingModule&#45;&gt;TabsPageModule</title>
<path fill="none" stroke="#000000" d="M104,-122.2843C104,-143.3211 104,-175 104,-175 104,-175 302.9363,-175 302.9363,-175"/>
<polygon fill="#000000" stroke="#000000" points="302.9364,-178.5001 312.9363,-175 302.9363,-171.5001 302.9364,-178.5001"/>
</g>
</g>
</svg>
