<?xml version="1.0" encoding="UTF-8" standalone="no"?>
<!DOCTYPE svg PUBLIC "-//W3C//DTD SVG 1.1//EN"
 "http://www.w3.org/Graphics/SVG/1.1/DTD/svg11.dtd">
<!-- Generated by graphviz version 2.40.1 (20161225.0304)
 -->
<!-- Title: dependencies Pages: 1 -->
<svg width="679pt" height="211pt"
 viewBox="0.00 0.00 679.00 211.00" xmlns="http://www.w3.org/2000/svg" xmlns:xlink="http://www.w3.org/1999/xlink">
<g id="graph0" class="graph" transform="scale(1 1) rotate(0) translate(4 207)">
<title>dependencies</title>
<polygon fill="#ffffff" stroke="transparent" points="-4,4 -4,-207 675,-207 675,4 -4,4"/>
<text text-anchor="start" x="314.5091" y="-42.4" font-family="sans-serif" font-weight="bold" font-size="14.00" fill="#000000">Legend</text>
<polygon fill="#ffffb3" stroke="transparent" points="101.5,-10 101.5,-30 121.5,-30 121.5,-10 101.5,-10"/>
<text text-anchor="start" x="125.129" y="-15.4" font-family="sans-serif" font-size="14.00" fill="#000000"> &#160;Declarations</text>
<polygon fill="#8dd3c7" stroke="transparent" points="214.5,-10 214.5,-30 234.5,-30 234.5,-10 214.5,-10"/>
<text text-anchor="start" x="238.2251" y="-15.4" font-family="sans-serif" font-size="14.00" fill="#000000"> &#160;Module</text>
<polygon fill="#80b1d3" stroke="transparent" points="300.5,-10 300.5,-30 320.5,-30 320.5,-10 300.5,-10"/>
<text text-anchor="start" x="324.2812" y="-15.4" font-family="sans-serif" font-size="14.00" fill="#000000"> &#160;Bootstrap</text>
<polygon fill="#fdb462" stroke="transparent" points="397.5,-10 397.5,-30 417.5,-30 417.5,-10 397.5,-10"/>
<text text-anchor="start" x="421.1732" y="-15.4" font-family="sans-serif" font-size="14.00" fill="#000000"> &#160;Providers</text>
<polygon fill="#fb8072" stroke="transparent" points="493.5,-10 493.5,-30 513.5,-30 513.5,-10 493.5,-10"/>
<text text-anchor="start" x="517.2258" y="-15.4" font-family="sans-serif" font-size="14.00" fill="#000000"> &#160;Exports</text>
<g id="clust1" class="cluster">
<title>cluster_MapPageModule</title>
<polygon fill="none" stroke="#000000" stroke-dasharray="1,5" points="8,-70 8,-195 663,-195 663,-70 8,-70"/>
</g>
<g id="clust2" class="cluster">
<title>cluster_MapPageModule_declarations</title>
<polygon fill="none" stroke="#000000" points="571,-78 571,-130 655,-130 655,-78 571,-78"/>
</g>
<g id="clust4" class="cluster">
<title>cluster_MapPageModule_imports</title>
<polygon fill="none" stroke="#000000" points="16,-78 16,-130 563,-130 563,-78 16,-78"/>
</g>
<!-- MapPage -->
<g id="node1" class="node">
<title>MapPage</title>
<polygon fill="#ffffb3" stroke="#000000" points="647.3711,-122 578.6289,-122 578.6289,-86 647.3711,-86 647.3711,-122"/>
<text text-anchor="middle" x="613" y="-99.8" font-family="Times,serif" font-size="14.00" fill="#000000">MapPage</text>
</g>
<!-- MapPageModule -->
<g id="node2" class="node">
<title>MapPageModule</title>
<polygon fill="#8dd3c7" stroke="#000000" points="434.4216,-187 431.4216,-191 410.4216,-191 407.4216,-187 321.5784,-187 321.5784,-151 434.4216,-151 434.4216,-187"/>
<text text-anchor="middle" x="378" y="-164.8" font-family="Times,serif" font-size="14.00" fill="#000000">MapPageModule</text>
</g>
<!-- MapPage&#45;&gt;MapPageModule -->
<g id="edge1" class="edge">
<title>MapPage&#45;&gt;MapPageModule</title>
<path fill="none" stroke="#000000" d="M613,-122.1061C613,-141.3391 613,-169 613,-169 613,-169 444.2884,-169 444.2884,-169"/>
<polygon fill="#000000" stroke="#000000" points="444.2884,-165.5001 434.2884,-169 444.2883,-172.5001 444.2884,-165.5001"/>
</g>
<!-- CommonModule -->
<g id="node3" class="node">
<title>CommonModule</title>
<polygon fill="#8dd3c7" stroke="#000000" points="554.6681,-122 551.6681,-126 530.6681,-126 527.6681,-122 443.3319,-122 443.3319,-86 554.6681,-86 554.6681,-122"/>
<text text-anchor="middle" x="499" y="-99.8" font-family="Times,serif" font-size="14.00" fill="#000000">CommonModule</text>
</g>
<!-- CommonModule&#45;&gt;MapPageModule -->
<g id="edge2" class="edge">
<title>CommonModule&#45;&gt;MapPageModule</title>
<path fill="none" stroke="#000000" d="M443.2532,-104C435.4002,-104 429.9373,-104 429.9373,-104 429.9373,-104 429.9373,-140.8939 429.9373,-140.8939"/>
<polygon fill="#000000" stroke="#000000" points="426.4373,-140.8938 429.9373,-150.8939 433.4373,-140.8939 426.4373,-140.8938"/>
</g>
<!-- FormsModule -->
<g id="node4" class="node">
<title>FormsModule</title>
<polygon fill="#8dd3c7" stroke="#000000" points="425.8288,-122 422.8288,-126 401.8288,-126 398.8288,-122 330.1712,-122 330.1712,-86 425.8288,-86 425.8288,-122"/>
<text text-anchor="middle" x="378" y="-99.8" font-family="Times,serif" font-size="14.00" fill="#000000">FormsModule</text>
</g>
<!-- FormsModule&#45;&gt;MapPageModule -->
<g id="edge3" class="edge">
<title>FormsModule&#45;&gt;MapPageModule</title>
<path fill="none" stroke="#000000" d="M378,-122.1061C378,-122.1061 378,-140.991 378,-140.991"/>
<polygon fill="#000000" stroke="#000000" points="374.5001,-140.9909 378,-150.991 381.5001,-140.991 374.5001,-140.9909"/>
</g>
<!-- IonicModule -->
<g id="node5" class="node">
<title>IonicModule</title>
<polygon fill="#8dd3c7" stroke="#000000" points="312.3162,-122 309.3162,-126 288.3162,-126 285.3162,-122 223.6838,-122 223.6838,-86 312.3162,-86 312.3162,-122"/>
<text text-anchor="middle" x="268" y="-99.8" font-family="Times,serif" font-size="14.00" fill="#000000">IonicModule</text>
</g>
<!-- IonicModule&#45;&gt;MapPageModule -->
<g id="edge4" class="edge">
<title>IonicModule&#45;&gt;MapPageModule</title>
<path fill="none" stroke="#000000" d="M312.3027,-104C320.2499,-104 326.0628,-104 326.0628,-104 326.0628,-104 326.0628,-140.8939 326.0628,-140.8939"/>
<polygon fill="#000000" stroke="#000000" points="322.5628,-140.8938 326.0628,-150.8939 329.5628,-140.8939 322.5628,-140.8938"/>
</g>
<!-- RouterModule.forChild(args) -->
<g id="node6" class="node">
<title>RouterModule.forChild(args)</title>
<polygon fill="#8dd3c7" stroke="#000000" points="205.7323,-122 202.7323,-126 181.7323,-126 178.7323,-122 24.2677,-122 24.2677,-86 205.7323,-86 205.7323,-122"/>
<text text-anchor="middle" x="115" y="-99.8" font-family="Times,serif" font-size="14.00" fill="#000000">RouterModule.forChild(args)</text>
</g>
<!-- RouterModule.forChild(args)&#45;&gt;MapPageModule -->
<g id="edge5" class="edge">
<title>RouterModule.forChild(args)&#45;&gt;MapPageModule</title>
<path fill="none" stroke="#000000" d="M115,-122.1061C115,-141.3391 115,-169 115,-169 115,-169 311.5799,-169 311.5799,-169"/>
<polygon fill="#000000" stroke="#000000" points="311.5799,-172.5001 321.5799,-169 311.5799,-165.5001 311.5799,-172.5001"/>
</g>
</g>
</svg>
