<?xml version="1.0" encoding="UTF-8" standalone="no"?>
<!DOCTYPE svg PUBLIC "-//W3C//DTD SVG 1.1//EN"
 "http://www.w3.org/Graphics/SVG/1.1/DTD/svg11.dtd">
<!-- Generated by graphviz version 2.40.1 (20161225.0304)
 -->
<!-- Title: dependencies Pages: 1 -->
<svg width="837pt" height="211pt"
 viewBox="0.00 0.00 837.00 211.00" xmlns="http://www.w3.org/2000/svg" xmlns:xlink="http://www.w3.org/1999/xlink">
<g id="graph0" class="graph" transform="scale(1 1) rotate(0) translate(4 207)">
<title>dependencies</title>
<polygon fill="#ffffff" stroke="transparent" points="-4,4 -4,-207 833,-207 833,4 -4,4"/>
<text text-anchor="start" x="393.5091" y="-42.4" font-family="sans-serif" font-weight="bold" font-size="14.00" fill="#000000">Legend</text>
<polygon fill="#ffffb3" stroke="transparent" points="180.5,-10 180.5,-30 200.5,-30 200.5,-10 180.5,-10"/>
<text text-anchor="start" x="204.129" y="-15.4" font-family="sans-serif" font-size="14.00" fill="#000000"> &#160;Declarations</text>
<polygon fill="#8dd3c7" stroke="transparent" points="293.5,-10 293.5,-30 313.5,-30 313.5,-10 293.5,-10"/>
<text text-anchor="start" x="317.2251" y="-15.4" font-family="sans-serif" font-size="14.00" fill="#000000"> &#160;Module</text>
<polygon fill="#80b1d3" stroke="transparent" points="379.5,-10 379.5,-30 399.5,-30 399.5,-10 379.5,-10"/>
<text text-anchor="start" x="403.2812" y="-15.4" font-family="sans-serif" font-size="14.00" fill="#000000"> &#160;Bootstrap</text>
<polygon fill="#fdb462" stroke="transparent" points="476.5,-10 476.5,-30 496.5,-30 496.5,-10 476.5,-10"/>
<text text-anchor="start" x="500.1732" y="-15.4" font-family="sans-serif" font-size="14.00" fill="#000000"> &#160;Providers</text>
<polygon fill="#fb8072" stroke="transparent" points="572.5,-10 572.5,-30 592.5,-30 592.5,-10 572.5,-10"/>
<text text-anchor="start" x="596.2258" y="-15.4" font-family="sans-serif" font-size="14.00" fill="#000000"> &#160;Exports</text>
<g id="clust1" class="cluster">
<title>cluster_CashboxPageModule</title>
<polygon fill="none" stroke="#000000" stroke-dasharray="1,5" points="8,-70 8,-195 821,-195 821,-70 8,-70"/>
</g>
<g id="clust2" class="cluster">
<title>cluster_CashboxPageModule_declarations</title>
<polygon fill="none" stroke="#000000" points="571,-78 571,-130 813,-130 813,-78 571,-78"/>
</g>
<g id="clust5" class="cluster">
<title>cluster_CashboxPageModule_imports</title>
<polygon fill="none" stroke="#000000" points="16,-78 16,-130 563,-130 563,-78 16,-78"/>
</g>
<!-- CashboxPage -->
<g id="node1" class="node">
<title>CashboxPage</title>
<polygon fill="#ffffb3" stroke="#000000" points="805.2078,-122 712.7922,-122 712.7922,-86 805.2078,-86 805.2078,-122"/>
<text text-anchor="middle" x="759" y="-99.8" font-family="Times,serif" font-size="14.00" fill="#000000">CashboxPage</text>
</g>
<!-- CashboxPageModule -->
<g id="node3" class="node">
<title>CashboxPageModule</title>
<polygon fill="#8dd3c7" stroke="#000000" points="505.7576,-187 502.7576,-191 481.7576,-191 478.7576,-187 370.2424,-187 370.2424,-151 505.7576,-151 505.7576,-187"/>
<text text-anchor="middle" x="438" y="-164.8" font-family="Times,serif" font-size="14.00" fill="#000000">CashboxPageModule</text>
</g>
<!-- CashboxPage&#45;&gt;CashboxPageModule -->
<g id="edge1" class="edge">
<title>CashboxPage&#45;&gt;CashboxPageModule</title>
<path fill="none" stroke="#000000" d="M759,-122.2843C759,-143.3211 759,-175 759,-175 759,-175 516.0758,-175 516.0758,-175"/>
<polygon fill="#000000" stroke="#000000" points="516.0759,-171.5001 506.0758,-175 516.0758,-178.5001 516.0759,-171.5001"/>
</g>
<!-- EditorComponent -->
<g id="node2" class="node">
<title>EditorComponent</title>
<polygon fill="#ffffb3" stroke="#000000" points="695.3273,-122 578.6727,-122 578.6727,-86 695.3273,-86 695.3273,-122"/>
<text text-anchor="middle" x="637" y="-99.8" font-family="Times,serif" font-size="14.00" fill="#000000">EditorComponent</text>
</g>
<!-- EditorComponent&#45;&gt;CashboxPageModule -->
<g id="edge2" class="edge">
<title>EditorComponent&#45;&gt;CashboxPageModule</title>
<path fill="none" stroke="#000000" d="M637,-122.0225C637,-139.3734 637,-163 637,-163 637,-163 515.9279,-163 515.9279,-163"/>
<polygon fill="#000000" stroke="#000000" points="515.928,-159.5001 505.9279,-163 515.9279,-166.5001 515.928,-159.5001"/>
</g>
<!-- CommonModule -->
<g id="node4" class="node">
<title>CommonModule</title>
<polygon fill="#8dd3c7" stroke="#000000" points="554.6681,-122 551.6681,-126 530.6681,-126 527.6681,-122 443.3319,-122 443.3319,-86 554.6681,-86 554.6681,-122"/>
<text text-anchor="middle" x="499" y="-99.8" font-family="Times,serif" font-size="14.00" fill="#000000">CommonModule</text>
</g>
<!-- CommonModule&#45;&gt;CashboxPageModule -->
<g id="edge3" class="edge">
<title>CommonModule&#45;&gt;CashboxPageModule</title>
<path fill="none" stroke="#000000" d="M474.5225,-122.1061C474.5225,-122.1061 474.5225,-140.991 474.5225,-140.991"/>
<polygon fill="#000000" stroke="#000000" points="471.0225,-140.9909 474.5225,-150.991 478.0225,-140.991 471.0225,-140.9909"/>
</g>
<!-- FormsModule -->
<g id="node5" class="node">
<title>FormsModule</title>
<polygon fill="#8dd3c7" stroke="#000000" points="425.8288,-122 422.8288,-126 401.8288,-126 398.8288,-122 330.1712,-122 330.1712,-86 425.8288,-86 425.8288,-122"/>
<text text-anchor="middle" x="378" y="-99.8" font-family="Times,serif" font-size="14.00" fill="#000000">FormsModule</text>
</g>
<!-- FormsModule&#45;&gt;CashboxPageModule -->
<g id="edge4" class="edge">
<title>FormsModule&#45;&gt;CashboxPageModule</title>
<path fill="none" stroke="#000000" d="M397.8927,-122.1061C397.8927,-122.1061 397.8927,-140.991 397.8927,-140.991"/>
<polygon fill="#000000" stroke="#000000" points="394.3928,-140.9909 397.8927,-150.991 401.3928,-140.991 394.3928,-140.9909"/>
</g>
<!-- IonicModule -->
<g id="node6" class="node">
<title>IonicModule</title>
<polygon fill="#8dd3c7" stroke="#000000" points="312.3162,-122 309.3162,-126 288.3162,-126 285.3162,-122 223.6838,-122 223.6838,-86 312.3162,-86 312.3162,-122"/>
<text text-anchor="middle" x="268" y="-99.8" font-family="Times,serif" font-size="14.00" fill="#000000">IonicModule</text>
</g>
<!-- IonicModule&#45;&gt;CashboxPageModule -->
<g id="edge5" class="edge">
<title>IonicModule&#45;&gt;CashboxPageModule</title>
<path fill="none" stroke="#000000" d="M268,-122.0225C268,-139.3734 268,-163 268,-163 268,-163 359.834,-163 359.834,-163"/>
<polygon fill="#000000" stroke="#000000" points="359.8341,-166.5001 369.834,-163 359.834,-159.5001 359.8341,-166.5001"/>
</g>
<!-- RouterModule.forChild(args) -->
<g id="node7" class="node">
<title>RouterModule.forChild(args)</title>
<polygon fill="#8dd3c7" stroke="#000000" points="205.7323,-122 202.7323,-126 181.7323,-126 178.7323,-122 24.2677,-122 24.2677,-86 205.7323,-86 205.7323,-122"/>
<text text-anchor="middle" x="115" y="-99.8" font-family="Times,serif" font-size="14.00" fill="#000000">RouterModule.forChild(args)</text>
</g>
<!-- RouterModule.forChild(args)&#45;&gt;CashboxPageModule -->
<g id="edge6" class="edge">
<title>RouterModule.forChild(args)&#45;&gt;CashboxPageModule</title>
<path fill="none" stroke="#000000" d="M115,-122.2843C115,-143.3211 115,-175 115,-175 115,-175 359.8947,-175 359.8947,-175"/>
<polygon fill="#000000" stroke="#000000" points="359.8947,-178.5001 369.8947,-175 359.8947,-171.5001 359.8947,-178.5001"/>
</g>
</g>
</svg>
