<?xml version="1.0" encoding="UTF-8" standalone="no"?>
<!DOCTYPE svg PUBLIC "-//W3C//DTD SVG 1.1//EN"
 "http://www.w3.org/Graphics/SVG/1.1/DTD/svg11.dtd">
<!-- Generated by graphviz version 2.40.1 (20161225.0304)
 -->
<!-- Title: dependencies Pages: 1 -->
<svg width="504pt" height="211pt"
 viewBox="0.00 0.00 504.00 211.00" xmlns="http://www.w3.org/2000/svg" xmlns:xlink="http://www.w3.org/1999/xlink">
<g id="graph0" class="graph" transform="scale(1 1) rotate(0) translate(4 207)">
<title>dependencies</title>
<polygon fill="#ffffff" stroke="transparent" points="-4,4 -4,-207 500,-207 500,4 -4,4"/>
<text text-anchor="start" x="227.0091" y="-42.4" font-family="sans-serif" font-weight="bold" font-size="14.00" fill="#000000">Legend</text>
<polygon fill="#ffffb3" stroke="transparent" points="14,-10 14,-30 34,-30 34,-10 14,-10"/>
<text text-anchor="start" x="37.629" y="-15.4" font-family="sans-serif" font-size="14.00" fill="#000000"> &#160;Declarations</text>
<polygon fill="#8dd3c7" stroke="transparent" points="127,-10 127,-30 147,-30 147,-10 127,-10"/>
<text text-anchor="start" x="150.7251" y="-15.4" font-family="sans-serif" font-size="14.00" fill="#000000"> &#160;Module</text>
<polygon fill="#80b1d3" stroke="transparent" points="213,-10 213,-30 233,-30 233,-10 213,-10"/>
<text text-anchor="start" x="236.7812" y="-15.4" font-family="sans-serif" font-size="14.00" fill="#000000"> &#160;Bootstrap</text>
<polygon fill="#fdb462" stroke="transparent" points="310,-10 310,-30 330,-30 330,-10 310,-10"/>
<text text-anchor="start" x="333.6732" y="-15.4" font-family="sans-serif" font-size="14.00" fill="#000000"> &#160;Providers</text>
<polygon fill="#fb8072" stroke="transparent" points="406,-10 406,-30 426,-30 426,-10 406,-10"/>
<text text-anchor="start" x="429.7258" y="-15.4" font-family="sans-serif" font-size="14.00" fill="#000000"> &#160;Exports</text>
<g id="clust1" class="cluster">
<title>cluster_CashboxPageModule</title>
<polygon fill="none" stroke="#000000" stroke-dasharray="1,5" points="119,-70 119,-195 377,-195 377,-70 119,-70"/>
</g>
<g id="clust2" class="cluster">
<title>cluster_CashboxPageModule_declarations</title>
<polygon fill="none" stroke="#000000" points="127,-78 127,-130 369,-130 369,-78 127,-78"/>
</g>
<!-- CashboxPage -->
<g id="node1" class="node">
<title>CashboxPage</title>
<polygon fill="#ffffb3" stroke="#000000" points="361.2078,-122 268.7922,-122 268.7922,-86 361.2078,-86 361.2078,-122"/>
<text text-anchor="middle" x="315" y="-99.8" font-family="Times,serif" font-size="14.00" fill="#000000">CashboxPage</text>
</g>
<!-- CashboxPageModule -->
<g id="node3" class="node">
<title>CashboxPageModule</title>
<polygon fill="#8dd3c7" stroke="#000000" points="315.7576,-187 312.7576,-191 291.7576,-191 288.7576,-187 180.2424,-187 180.2424,-151 315.7576,-151 315.7576,-187"/>
<text text-anchor="middle" x="248" y="-164.8" font-family="Times,serif" font-size="14.00" fill="#000000">CashboxPageModule</text>
</g>
<!-- CashboxPage&#45;&gt;CashboxPageModule -->
<g id="edge1" class="edge">
<title>CashboxPage&#45;&gt;CashboxPageModule</title>
<path fill="none" stroke="#000000" d="M292.3875,-122.1061C292.3875,-122.1061 292.3875,-140.991 292.3875,-140.991"/>
<polygon fill="#000000" stroke="#000000" points="288.8875,-140.9909 292.3875,-150.991 295.8875,-140.991 288.8875,-140.9909"/>
</g>
<!-- EditorComponent -->
<g id="node2" class="node">
<title>EditorComponent</title>
<polygon fill="#ffffb3" stroke="#000000" points="251.3273,-122 134.6727,-122 134.6727,-86 251.3273,-86 251.3273,-122"/>
<text text-anchor="middle" x="193" y="-99.8" font-family="Times,serif" font-size="14.00" fill="#000000">EditorComponent</text>
</g>
<!-- EditorComponent&#45;&gt;CashboxPageModule -->
<g id="edge2" class="edge">
<title>EditorComponent&#45;&gt;CashboxPageModule</title>
<path fill="none" stroke="#000000" d="M215.6424,-122.1061C215.6424,-122.1061 215.6424,-140.991 215.6424,-140.991"/>
<polygon fill="#000000" stroke="#000000" points="212.1424,-140.9909 215.6424,-150.991 219.1424,-140.991 212.1424,-140.9909"/>
</g>
</g>
</svg>
