<?xml version="1.0" encoding="UTF-8" standalone="no"?>
<!DOCTYPE svg PUBLIC "-//W3C//DTD SVG 1.1//EN"
 "http://www.w3.org/Graphics/SVG/1.1/DTD/svg11.dtd">
<!-- Generated by graphviz version 2.40.1 (20161225.0304)
 -->
<!-- Title: dependencies Pages: 1 -->
<svg width="3338pt" height="358pt"
 viewBox="0.00 0.00 3338.00 358.00" xmlns="http://www.w3.org/2000/svg" xmlns:xlink="http://www.w3.org/1999/xlink">
<g id="graph0" class="graph" transform="scale(1 1) rotate(0) translate(4 354)">
<title>dependencies</title>
<polygon fill="#ffffff" stroke="transparent" points="-4,4 -4,-354 3334,-354 3334,4 -4,4"/>
<text text-anchor="start" x="1644.0091" y="-42.4" font-family="sans-serif" font-weight="bold" font-size="14.00" fill="#000000">Legend</text>
<polygon fill="#ffffb3" stroke="transparent" points="1431,-10 1431,-30 1451,-30 1451,-10 1431,-10"/>
<text text-anchor="start" x="1454.629" y="-15.4" font-family="sans-serif" font-size="14.00" fill="#000000"> &#160;Declarations</text>
<polygon fill="#8dd3c7" stroke="transparent" points="1544,-10 1544,-30 1564,-30 1564,-10 1544,-10"/>
<text text-anchor="start" x="1567.7251" y="-15.4" font-family="sans-serif" font-size="14.00" fill="#000000"> &#160;Module</text>
<polygon fill="#80b1d3" stroke="transparent" points="1630,-10 1630,-30 1650,-30 1650,-10 1630,-10"/>
<text text-anchor="start" x="1653.7812" y="-15.4" font-family="sans-serif" font-size="14.00" fill="#000000"> &#160;Bootstrap</text>
<polygon fill="#fdb462" stroke="transparent" points="1727,-10 1727,-30 1747,-30 1747,-10 1727,-10"/>
<text text-anchor="start" x="1750.6732" y="-15.4" font-family="sans-serif" font-size="14.00" fill="#000000"> &#160;Providers</text>
<polygon fill="#fb8072" stroke="transparent" points="1823,-10 1823,-30 1843,-30 1843,-10 1823,-10"/>
<text text-anchor="start" x="1846.7258" y="-15.4" font-family="sans-serif" font-size="14.00" fill="#000000"> &#160;Exports</text>
<g id="clust1" class="cluster">
<title>cluster_AppModule</title>
<polygon fill="none" stroke="#000000" stroke-dasharray="1,5" points="8,-138 8,-342 1261,-342 1261,-138 8,-138"/>
</g>
<g id="clust2" class="cluster">
<title>cluster_AppModule_declarations</title>
<polygon fill="none" stroke="#000000" points="554,-146 554,-198 676,-198 676,-146 554,-146"/>
</g>
<g id="clust4" class="cluster">
<title>cluster_AppModule_imports</title>
<polygon fill="none" stroke="#000000" points="684,-146 684,-198 1253,-198 1253,-146 684,-146"/>
</g>
<g id="clust6" class="cluster">
<title>cluster_AppModule_bootstrap</title>
<polygon fill="none" stroke="#000000" points="777,-282 777,-334 901,-334 901,-282 777,-282"/>
</g>
<g id="clust7" class="cluster">
<title>cluster_AppModule_providers</title>
<polygon fill="none" stroke="#000000" points="16,-146 16,-198 546,-198 546,-146 16,-146"/>
</g>
<g id="clust8" class="cluster">
<title>cluster_AppRoutingModule</title>
<polygon fill="none" stroke="#000000" stroke-dasharray="1,5" points="1269,-206 1269,-274 1605,-274 1605,-206 1269,-206"/>
</g>
<g id="clust10" class="cluster">
<title>cluster_AppRoutingModule_imports</title>
<polygon fill="none" stroke="#000000" points="1277,-214 1277,-266 1471,-266 1471,-214 1277,-214"/>
</g>
<g id="clust11" class="cluster">
<title>cluster_AppRoutingModule_exports</title>
<polygon fill="none" stroke="#000000" points="1479,-214 1479,-266 1597,-266 1597,-214 1479,-214"/>
</g>
<g id="clust14" class="cluster">
<title>cluster_CashboxPageModule</title>
<polygon fill="none" stroke="#000000" stroke-dasharray="1,5" points="1907,-70 1907,-198 2720,-198 2720,-70 1907,-70"/>
</g>
<g id="clust15" class="cluster">
<title>cluster_CashboxPageModule_declarations</title>
<polygon fill="none" stroke="#000000" points="1915,-78 1915,-130 2157,-130 2157,-78 1915,-78"/>
</g>
<g id="clust18" class="cluster">
<title>cluster_CashboxPageModule_imports</title>
<polygon fill="none" stroke="#000000" points="2165,-78 2165,-130 2712,-130 2712,-78 2165,-78"/>
</g>
<g id="clust22" class="cluster">
<title>cluster_MapPageModule</title>
<polygon fill="none" stroke="#000000" stroke-dasharray="1,5" points="2728,-70 2728,-198 2856,-198 2856,-70 2728,-70"/>
</g>
<g id="clust23" class="cluster">
<title>cluster_MapPageModule_declarations</title>
<polygon fill="none" stroke="#000000" points="2750,-78 2750,-130 2834,-130 2834,-78 2750,-78"/>
</g>
<g id="clust29" class="cluster">
<title>cluster_NotesPageModule</title>
<polygon fill="none" stroke="#000000" stroke-dasharray="1,5" points="2864,-70 2864,-198 3000,-198 3000,-70 2864,-70"/>
</g>
<g id="clust30" class="cluster">
<title>cluster_NotesPageModule_declarations</title>
<polygon fill="none" stroke="#000000" points="2886,-78 2886,-130 2978,-130 2978,-78 2886,-78"/>
</g>
<g id="clust36" class="cluster">
<title>cluster_OverviewPageModule</title>
<polygon fill="none" stroke="#000000" stroke-dasharray="1,5" points="3008,-70 3008,-198 3166,-198 3166,-70 3008,-70"/>
</g>
<g id="clust37" class="cluster">
<title>cluster_OverviewPageModule_declarations</title>
<polygon fill="none" stroke="#000000" points="3030,-78 3030,-130 3144,-130 3144,-78 3030,-78"/>
</g>
<g id="clust43" class="cluster">
<title>cluster_SettingsPageModule</title>
<polygon fill="none" stroke="#000000" stroke-dasharray="1,5" points="3174,-70 3174,-198 3322,-198 3322,-70 3174,-70"/>
</g>
<g id="clust44" class="cluster">
<title>cluster_SettingsPageModule_declarations</title>
<polygon fill="none" stroke="#000000" points="3196,-78 3196,-130 3300,-130 3300,-78 3196,-78"/>
</g>
<g id="clust50" class="cluster">
<title>cluster_TabsPageModule</title>
<polygon fill="none" stroke="#000000" stroke-dasharray="1,5" points="1613,-138 1613,-266 1899,-266 1899,-138 1613,-138"/>
</g>
<g id="clust51" class="cluster">
<title>cluster_TabsPageModule_declarations</title>
<polygon fill="none" stroke="#000000" points="1805,-146 1805,-198 1891,-198 1891,-146 1805,-146"/>
</g>
<g id="clust53" class="cluster">
<title>cluster_TabsPageModule_imports</title>
<polygon fill="none" stroke="#000000" points="1621,-146 1621,-198 1797,-198 1797,-146 1621,-146"/>
</g>
<!-- AppComponent -->
<g id="node1" class="node">
<title>AppComponent</title>
<polygon fill="#ffffb3" stroke="#000000" points="667.9399,-190 562.0601,-190 562.0601,-154 667.9399,-154 667.9399,-190"/>
<text text-anchor="middle" x="615" y="-167.8" font-family="Times,serif" font-size="14.00" fill="#000000">AppComponent</text>
</g>
<!-- AppModule -->
<g id="node2" class="node">
<title>AppModule</title>
<polygon fill="#8dd3c7" stroke="#000000" points="880.6571,-258 877.6571,-262 856.6571,-262 853.6571,-258 797.3429,-258 797.3429,-222 880.6571,-222 880.6571,-258"/>
<text text-anchor="middle" x="839" y="-235.8" font-family="Times,serif" font-size="14.00" fill="#000000">AppModule</text>
</g>
<!-- AppComponent&#45;&gt;AppModule -->
<g id="edge1" class="edge">
<title>AppComponent&#45;&gt;AppModule</title>
<path fill="none" stroke="#000000" d="M615,-190.2667C615,-208.5552 615,-234 615,-234 615,-234 787.1301,-234 787.1301,-234"/>
<polygon fill="#000000" stroke="#000000" points="787.1301,-237.5001 797.1301,-234 787.13,-230.5001 787.1301,-237.5001"/>
</g>
<!-- AppComponent  -->
<g id="node7" class="node">
<title>AppComponent </title>
<polygon fill="#80b1d3" stroke="#000000" points="893.439,-326 784.561,-326 784.561,-290 893.439,-290 893.439,-326"/>
<text text-anchor="middle" x="839" y="-303.8" font-family="Times,serif" font-size="14.00" fill="#000000">AppComponent </text>
</g>
<!-- AppModule&#45;&gt;AppComponent  -->
<g id="edge6" class="edge">
<title>AppModule&#45;&gt;AppComponent </title>
<path fill="none" stroke="#000000" stroke-dasharray="1,5" d="M839,-258.2228C839,-258.2228 839,-279.7269 839,-279.7269"/>
<polygon fill="#000000" stroke="#000000" points="835.5001,-279.7269 839,-289.7269 842.5001,-279.727 835.5001,-279.7269"/>
</g>
<!-- BrowserModule -->
<g id="node3" class="node">
<title>BrowserModule</title>
<polygon fill="#8dd3c7" stroke="#000000" points="1098.4734,-190 1095.4734,-194 1074.4734,-194 1071.4734,-190 991.5266,-190 991.5266,-154 1098.4734,-154 1098.4734,-190"/>
<text text-anchor="middle" x="1045" y="-167.8" font-family="Times,serif" font-size="14.00" fill="#000000">BrowserModule</text>
</g>
<!-- BrowserModule&#45;&gt;AppModule -->
<g id="edge2" class="edge">
<title>BrowserModule&#45;&gt;AppModule</title>
<path fill="none" stroke="#000000" d="M1045,-190.0225C1045,-207.3734 1045,-231 1045,-231 1045,-231 890.6872,-231 890.6872,-231"/>
<polygon fill="#000000" stroke="#000000" points="890.6872,-227.5001 880.6872,-231 890.6871,-234.5001 890.6872,-227.5001"/>
</g>
<!-- HttpClientModule -->
<g id="node4" class="node">
<title>HttpClientModule</title>
<polygon fill="#8dd3c7" stroke="#000000" points="973.1611,-190 970.1611,-194 949.1611,-194 946.1611,-190 854.8389,-190 854.8389,-154 973.1611,-154 973.1611,-190"/>
<text text-anchor="middle" x="914" y="-167.8" font-family="Times,serif" font-size="14.00" fill="#000000">HttpClientModule</text>
</g>
<!-- HttpClientModule&#45;&gt;AppModule -->
<g id="edge3" class="edge">
<title>HttpClientModule&#45;&gt;AppModule</title>
<path fill="none" stroke="#000000" d="M867.749,-190.2228C867.749,-190.2228 867.749,-211.7269 867.749,-211.7269"/>
<polygon fill="#000000" stroke="#000000" points="864.249,-211.7269 867.749,-221.7269 871.249,-211.727 864.249,-211.7269"/>
</g>
<!-- IonicModule.forRoot() -->
<g id="node5" class="node">
<title>IonicModule.forRoot()</title>
<polygon fill="#8dd3c7" stroke="#000000" points="836.1855,-190 833.1855,-194 812.1855,-194 809.1855,-190 691.8145,-190 691.8145,-154 836.1855,-154 836.1855,-190"/>
<text text-anchor="middle" x="764" y="-167.8" font-family="Times,serif" font-size="14.00" fill="#000000">IonicModule.forRoot()</text>
</g>
<!-- IonicModule.forRoot()&#45;&gt;AppModule -->
<g id="edge4" class="edge">
<title>IonicModule.forRoot()&#45;&gt;AppModule</title>
<path fill="none" stroke="#000000" d="M816.7572,-190.2228C816.7572,-190.2228 816.7572,-211.7269 816.7572,-211.7269"/>
<polygon fill="#000000" stroke="#000000" points="813.2573,-211.7269 816.7572,-221.7269 820.2573,-211.727 813.2573,-211.7269"/>
</g>
<!-- AppRoutingModule -->
<g id="node6" class="node">
<title>AppRoutingModule</title>
<polygon fill="#8dd3c7" stroke="#000000" points="1245.2744,-190 1242.2744,-194 1221.2744,-194 1218.2744,-190 1116.7256,-190 1116.7256,-154 1245.2744,-154 1245.2744,-190"/>
<text text-anchor="middle" x="1181" y="-167.8" font-family="Times,serif" font-size="14.00" fill="#000000">AppRoutingModule</text>
</g>
<!-- AppRoutingModule&#45;&gt;AppModule -->
<g id="edge5" class="edge">
<title>AppRoutingModule&#45;&gt;AppModule</title>
<path fill="none" stroke="#000000" d="M1159.5376,-190.2228C1159.5376,-210.3652 1159.5376,-240 1159.5376,-240 1159.5376,-240 890.9047,-240 890.9047,-240"/>
<polygon fill="#000000" stroke="#000000" points="890.9047,-236.5001 880.9047,-240 890.9047,-243.5001 890.9047,-236.5001"/>
</g>
<!-- RouterModule  -->
<g id="node10" class="node">
<title>RouterModule </title>
<polygon fill="#fb8072" stroke="#000000" points="1588.6523,-258 1487.3477,-258 1487.3477,-222 1588.6523,-222 1588.6523,-258"/>
<text text-anchor="middle" x="1538" y="-235.8" font-family="Times,serif" font-size="14.00" fill="#000000">RouterModule </text>
</g>
<!-- AppRoutingModule&#45;&gt;RouterModule  -->
<g id="edge9" class="edge">
<title>AppRoutingModule&#45;&gt;RouterModule </title>
<path fill="none" stroke="#000000" stroke-dasharray="5,2" d="M1245.3779,-166C1343.9884,-166 1521.1413,-166 1521.1413,-166 1521.1413,-166 1521.1413,-211.7079 1521.1413,-211.7079"/>
<polygon fill="#000000" stroke="#000000" points="1517.6414,-211.7078 1521.1413,-221.7079 1524.6414,-211.7079 1517.6414,-211.7078"/>
</g>
<!-- { provide: RouteReuseStrategy, useClass: IonicRouteStrategy } -->
<g id="node8" class="node">
<title>{ provide: RouteReuseStrategy, useClass: IonicRouteStrategy }</title>
<ellipse fill="#fdb462" stroke="#000000" cx="281" cy="-172" rx="257.2723" ry="18"/>
<text text-anchor="middle" x="281" y="-167.8" font-family="Times,serif" font-size="14.00" fill="#000000">{ provide: RouteReuseStrategy, useClass: IonicRouteStrategy }</text>
</g>
<!-- { provide: RouteReuseStrategy, useClass: IonicRouteStrategy }&#45;&gt;AppModule -->
<g id="edge7" class="edge">
<title>{ provide: RouteReuseStrategy, useClass: IonicRouteStrategy }&#45;&gt;AppModule</title>
<path fill="none" stroke="#000000" d="M281,-190.2921C281,-212.2057 281,-246 281,-246 281,-246 787.0593,-246 787.0593,-246"/>
<polygon fill="#000000" stroke="#000000" points="787.0593,-249.5001 797.0593,-246 787.0593,-242.5001 787.0593,-249.5001"/>
</g>
<!-- RouterModule.forRoot(args) -->
<g id="node9" class="node">
<title>RouterModule.forRoot(args)</title>
<polygon fill="#8dd3c7" stroke="#000000" points="1462.8419,-258 1459.8419,-262 1438.8419,-262 1435.8419,-258 1285.1581,-258 1285.1581,-222 1462.8419,-222 1462.8419,-258"/>
<text text-anchor="middle" x="1374" y="-235.8" font-family="Times,serif" font-size="14.00" fill="#000000">RouterModule.forRoot(args)</text>
</g>
<!-- RouterModule.forRoot(args)&#45;&gt;AppRoutingModule -->
<g id="edge8" class="edge">
<title>RouterModule.forRoot(args)&#45;&gt;AppRoutingModule</title>
<path fill="none" stroke="#000000" d="M1285.2164,-249C1243.3601,-249 1202.4624,-249 1202.4624,-249 1202.4624,-249 1202.4624,-200.2479 1202.4624,-200.2479"/>
<polygon fill="#000000" stroke="#000000" points="1205.9625,-200.2479 1202.4624,-190.2479 1198.9625,-200.248 1205.9625,-200.2479"/>
</g>
<!-- CashboxPage -->
<g id="node11" class="node">
<title>CashboxPage</title>
<polygon fill="#ffffb3" stroke="#000000" points="2149.2078,-122 2056.7922,-122 2056.7922,-86 2149.2078,-86 2149.2078,-122"/>
<text text-anchor="middle" x="2103" y="-99.8" font-family="Times,serif" font-size="14.00" fill="#000000">CashboxPage</text>
</g>
<!-- CashboxPageModule -->
<g id="node13" class="node">
<title>CashboxPageModule</title>
<polygon fill="#8dd3c7" stroke="#000000" points="2348.7576,-190 2345.7576,-194 2324.7576,-194 2321.7576,-190 2213.2424,-190 2213.2424,-154 2348.7576,-154 2348.7576,-190"/>
<text text-anchor="middle" x="2281" y="-167.8" font-family="Times,serif" font-size="14.00" fill="#000000">CashboxPageModule</text>
</g>
<!-- CashboxPage&#45;&gt;CashboxPageModule -->
<g id="edge10" class="edge">
<title>CashboxPage&#45;&gt;CashboxPageModule</title>
<path fill="none" stroke="#000000" d="M2103,-122.2667C2103,-140.5552 2103,-166 2103,-166 2103,-166 2203.1981,-166 2203.1981,-166"/>
<polygon fill="#000000" stroke="#000000" points="2203.1981,-169.5001 2213.1981,-166 2203.198,-162.5001 2203.1981,-169.5001"/>
</g>
<!-- EditorComponent -->
<g id="node12" class="node">
<title>EditorComponent</title>
<polygon fill="#ffffb3" stroke="#000000" points="2039.3273,-122 1922.6727,-122 1922.6727,-86 2039.3273,-86 2039.3273,-122"/>
<text text-anchor="middle" x="1981" y="-99.8" font-family="Times,serif" font-size="14.00" fill="#000000">EditorComponent</text>
</g>
<!-- EditorComponent&#45;&gt;CashboxPageModule -->
<g id="edge11" class="edge">
<title>EditorComponent&#45;&gt;CashboxPageModule</title>
<path fill="none" stroke="#000000" d="M1981,-122.2921C1981,-144.2057 1981,-178 1981,-178 1981,-178 2202.9254,-178 2202.9254,-178"/>
<polygon fill="#000000" stroke="#000000" points="2202.9254,-181.5001 2212.9254,-178 2202.9253,-174.5001 2202.9254,-181.5001"/>
</g>
<!-- CommonModule -->
<g id="node14" class="node">
<title>CommonModule</title>
<polygon fill="#8dd3c7" stroke="#000000" points="2483.6681,-122 2480.6681,-126 2459.6681,-126 2456.6681,-122 2372.3319,-122 2372.3319,-86 2483.6681,-86 2483.6681,-122"/>
<text text-anchor="middle" x="2428" y="-99.8" font-family="Times,serif" font-size="14.00" fill="#000000">CommonModule</text>
</g>
<!-- CommonModule&#45;&gt;CashboxPageModule -->
<g id="edge12" class="edge">
<title>CommonModule&#45;&gt;CashboxPageModule</title>
<path fill="none" stroke="#000000" d="M2388.1187,-122.2843C2388.1187,-143.3211 2388.1187,-175 2388.1187,-175 2388.1187,-175 2358.8399,-175 2358.8399,-175"/>
<polygon fill="#000000" stroke="#000000" points="2358.8399,-171.5001 2348.8399,-175 2358.8399,-178.5001 2358.8399,-171.5001"/>
</g>
<!-- MapPageModule -->
<g id="node19" class="node">
<title>MapPageModule</title>
<polygon fill="#8dd3c7" stroke="#000000" points="2848.4216,-190 2845.4216,-194 2824.4216,-194 2821.4216,-190 2735.5784,-190 2735.5784,-154 2848.4216,-154 2848.4216,-190"/>
<text text-anchor="middle" x="2792" y="-167.8" font-family="Times,serif" font-size="14.00" fill="#000000">MapPageModule</text>
</g>
<!-- CommonModule&#45;&gt;MapPageModule -->
<g id="edge17" class="edge">
<title>CommonModule&#45;&gt;MapPageModule</title>
<path fill="none" stroke="#000000" d="M2467.8813,-122.302C2467.8813,-140.2699 2467.8813,-165 2467.8813,-165 2467.8813,-165 2725.5428,-165 2725.5428,-165"/>
<polygon fill="#000000" stroke="#000000" points="2725.5429,-168.5001 2735.5428,-165 2725.5428,-161.5001 2725.5429,-168.5001"/>
</g>
<!-- NotesPageModule -->
<g id="node21" class="node">
<title>NotesPageModule</title>
<polygon fill="#8dd3c7" stroke="#000000" points="2991.9187,-190 2988.9187,-194 2967.9187,-194 2964.9187,-190 2872.0813,-190 2872.0813,-154 2991.9187,-154 2991.9187,-190"/>
<text text-anchor="middle" x="2932" y="-167.8" font-family="Times,serif" font-size="14.00" fill="#000000">NotesPageModule</text>
</g>
<!-- CommonModule&#45;&gt;NotesPageModule -->
<g id="edge22" class="edge">
<title>CommonModule&#45;&gt;NotesPageModule</title>
<path fill="none" stroke="#000000" d="M2420.0237,-122.1804C2420.0237,-135.0382 2420.0237,-150 2420.0237,-150 2420.0237,-150 2881.001,-150 2881.001,-150 2881.001,-150 2881.001,-150.3832 2881.001,-150.3832"/>
<polygon fill="#000000" stroke="#000000" points="2877.5012,-143.832 2881.001,-153.8321 2884.5012,-143.8322 2877.5012,-143.832"/>
</g>
<!-- OverviewPageModule -->
<g id="node23" class="node">
<title>OverviewPageModule</title>
<polygon fill="#8dd3c7" stroke="#000000" points="3157.9552,-190 3154.9552,-194 3133.9552,-194 3130.9552,-190 3016.0448,-190 3016.0448,-154 3157.9552,-154 3157.9552,-190"/>
<text text-anchor="middle" x="3087" y="-167.8" font-family="Times,serif" font-size="14.00" fill="#000000">OverviewPageModule</text>
</g>
<!-- CommonModule&#45;&gt;OverviewPageModule -->
<g id="edge27" class="edge">
<title>CommonModule&#45;&gt;OverviewPageModule</title>
<path fill="none" stroke="#000000" d="M2435.9763,-122.4218C2435.9763,-131.2791 2435.9763,-140 2435.9763,-140 2435.9763,-140 3024.7324,-140 3024.7324,-140 3024.7324,-140 3024.7324,-143.7566 3024.7324,-143.7566"/>
<polygon fill="#000000" stroke="#000000" points="3021.2325,-143.7566 3024.7324,-153.7566 3028.2325,-143.7566 3021.2325,-143.7566"/>
</g>
<!-- SettingsPageModule -->
<g id="node25" class="node">
<title>SettingsPageModule</title>
<polygon fill="#8dd3c7" stroke="#000000" points="3313.8753,-190 3310.8753,-194 3289.8753,-194 3286.8753,-190 3182.1247,-190 3182.1247,-154 3313.8753,-154 3313.8753,-190"/>
<text text-anchor="middle" x="3248" y="-167.8" font-family="Times,serif" font-size="14.00" fill="#000000">SettingsPageModule</text>
</g>
<!-- CommonModule&#45;&gt;SettingsPageModule -->
<g id="edge32" class="edge">
<title>CommonModule&#45;&gt;SettingsPageModule</title>
<path fill="none" stroke="#000000" d="M2451.9288,-122.0579C2451.9288,-126.4945 2451.9288,-130 2451.9288,-130 2451.9288,-130 3190.7724,-130 3190.7724,-130 3190.7724,-130 3190.7724,-143.9445 3190.7724,-143.9445"/>
<polygon fill="#000000" stroke="#000000" points="3187.2725,-143.9444 3190.7724,-153.9445 3194.2725,-143.9445 3187.2725,-143.9444"/>
</g>
<!-- TabsPageModule -->
<g id="node27" class="node">
<title>TabsPageModule</title>
<polygon fill="#8dd3c7" stroke="#000000" points="1890.9734,-258 1887.9734,-262 1866.9734,-262 1863.9734,-258 1777.0266,-258 1777.0266,-222 1890.9734,-222 1890.9734,-258"/>
<text text-anchor="middle" x="1834" y="-235.8" font-family="Times,serif" font-size="14.00" fill="#000000">TabsPageModule</text>
</g>
<!-- CommonModule&#45;&gt;TabsPageModule -->
<g id="edge38" class="edge">
<title>CommonModule&#45;&gt;TabsPageModule</title>
<path fill="none" stroke="#000000" d="M2404.0712,-122.196C2404.0712,-157.3126 2404.0712,-231 2404.0712,-231 2404.0712,-231 1901.0075,-231 1901.0075,-231"/>
<polygon fill="#000000" stroke="#000000" points="1901.0075,-227.5001 1891.0075,-231 1901.0075,-234.5001 1901.0075,-227.5001"/>
</g>
<!-- FormsModule -->
<g id="node15" class="node">
<title>FormsModule</title>
<polygon fill="#8dd3c7" stroke="#000000" points="2703.8288,-122 2700.8288,-126 2679.8288,-126 2676.8288,-122 2608.1712,-122 2608.1712,-86 2703.8288,-86 2703.8288,-122"/>
<text text-anchor="middle" x="2656" y="-99.8" font-family="Times,serif" font-size="14.00" fill="#000000">FormsModule</text>
</g>
<!-- FormsModule&#45;&gt;CashboxPageModule -->
<g id="edge13" class="edge">
<title>FormsModule&#45;&gt;CashboxPageModule</title>
<path fill="none" stroke="#000000" d="M2656,-122.3802C2656,-146.2785 2656,-185 2656,-185 2656,-185 2358.9097,-185 2358.9097,-185"/>
<polygon fill="#000000" stroke="#000000" points="2358.9097,-181.5001 2348.9097,-185 2358.9096,-188.5001 2358.9097,-181.5001"/>
</g>
<!-- FormsModule&#45;&gt;MapPageModule -->
<g id="edge18" class="edge">
<title>FormsModule&#45;&gt;MapPageModule</title>
<path fill="none" stroke="#000000" d="M2703.7284,-104C2725.5737,-104 2746.6771,-104 2746.6771,-104 2746.6771,-104 2746.6771,-143.7772 2746.6771,-143.7772"/>
<polygon fill="#000000" stroke="#000000" points="2743.1771,-143.7772 2746.6771,-153.7772 2750.1771,-143.7773 2743.1771,-143.7772"/>
</g>
<!-- FormsModule&#45;&gt;NotesPageModule -->
<g id="edge23" class="edge">
<title>FormsModule&#45;&gt;NotesPageModule</title>
<path fill="none" stroke="#000000" d="M2624.2239,-122.1025C2624.2239,-133.0859 2624.2239,-145 2624.2239,-145 2624.2239,-145 2889.7109,-145 2889.7109,-145 2889.7109,-145 2889.7109,-145.8841 2889.7109,-145.8841"/>
<polygon fill="#000000" stroke="#000000" points="2886.211,-143.8408 2889.7109,-153.8408 2893.211,-143.8409 2886.211,-143.8408"/>
</g>
<!-- FormsModule&#45;&gt;OverviewPageModule -->
<g id="edge28" class="edge">
<title>FormsModule&#45;&gt;OverviewPageModule</title>
<path fill="none" stroke="#000000" d="M2640.112,-122.0328C2640.112,-128.8526 2640.112,-135 2640.112,-135 2640.112,-135 3033.4423,-135 3033.4423,-135 3033.4423,-135 3033.4423,-143.9336 3033.4423,-143.9336"/>
<polygon fill="#000000" stroke="#000000" points="3029.9424,-143.9335 3033.4423,-153.9336 3036.9424,-143.9336 3029.9424,-143.9335"/>
</g>
<!-- FormsModule&#45;&gt;SettingsPageModule -->
<g id="edge33" class="edge">
<title>FormsModule&#45;&gt;SettingsPageModule</title>
<path fill="none" stroke="#000000" d="M2687.7761,-122.08C2687.7761,-123.8464 2687.7761,-125 2687.7761,-125 2687.7761,-125 3199.4823,-125 3199.4823,-125 3199.4823,-125 3199.4823,-143.963 3199.4823,-143.963"/>
<polygon fill="#000000" stroke="#000000" points="3195.9824,-143.963 3199.4823,-153.963 3202.9824,-143.963 3195.9824,-143.963"/>
</g>
<!-- FormsModule&#45;&gt;TabsPageModule -->
<g id="edge39" class="edge">
<title>FormsModule&#45;&gt;TabsPageModule</title>
<path fill="none" stroke="#000000" d="M2671.888,-122.0712C2671.888,-160.941 2671.888,-249 2671.888,-249 2671.888,-249 1901.2617,-249 1901.2617,-249"/>
<polygon fill="#000000" stroke="#000000" points="1901.2617,-245.5001 1891.2617,-249 1901.2616,-252.5001 1901.2617,-245.5001"/>
</g>
<!-- IonicModule -->
<g id="node16" class="node">
<title>IonicModule</title>
<polygon fill="#8dd3c7" stroke="#000000" points="2590.3162,-122 2587.3162,-126 2566.3162,-126 2563.3162,-122 2501.6838,-122 2501.6838,-86 2590.3162,-86 2590.3162,-122"/>
<text text-anchor="middle" x="2546" y="-99.8" font-family="Times,serif" font-size="14.00" fill="#000000">IonicModule</text>
</g>
<!-- IonicModule&#45;&gt;CashboxPageModule -->
<g id="edge14" class="edge">
<title>IonicModule&#45;&gt;CashboxPageModule</title>
<path fill="none" stroke="#000000" d="M2514.4587,-122.0109C2514.4587,-144.4852 2514.4587,-180 2514.4587,-180 2514.4587,-180 2358.8395,-180 2358.8395,-180"/>
<polygon fill="#000000" stroke="#000000" points="2358.8396,-176.5001 2348.8395,-180 2358.8395,-183.5001 2358.8396,-176.5001"/>
</g>
<!-- IonicModule&#45;&gt;MapPageModule -->
<g id="edge19" class="edge">
<title>IonicModule&#45;&gt;MapPageModule</title>
<path fill="none" stroke="#000000" d="M2577.5413,-122.027C2577.5413,-138.3976 2577.5413,-160 2577.5413,-160 2577.5413,-160 2725.6535,-160 2725.6535,-160"/>
<polygon fill="#000000" stroke="#000000" points="2725.6535,-163.5001 2735.6535,-160 2725.6535,-156.5001 2725.6535,-163.5001"/>
</g>
<!-- IonicModule&#45;&gt;NotesPageModule -->
<g id="edge24" class="edge">
<title>IonicModule&#45;&gt;NotesPageModule</title>
<path fill="none" stroke="#000000" d="M2539.6917,-122.4854C2539.6917,-134.1399 2539.6917,-147 2539.6917,-147 2539.6917,-147 2885.3559,-147 2885.3559,-147 2885.3559,-147 2885.3559,-147.6831 2885.3559,-147.6831"/>
<polygon fill="#000000" stroke="#000000" points="2881.8561,-143.8313 2885.3559,-153.8314 2888.8561,-143.8314 2881.8561,-143.8313"/>
</g>
<!-- IonicModule&#45;&gt;OverviewPageModule -->
<g id="edge29" class="edge">
<title>IonicModule&#45;&gt;OverviewPageModule</title>
<path fill="none" stroke="#000000" d="M2552.3083,-122.0449C2552.3083,-129.749 2552.3083,-137 2552.3083,-137 2552.3083,-137 3029.0873,-137 3029.0873,-137 3029.0873,-137 3029.0873,-143.68 3029.0873,-143.68"/>
<polygon fill="#000000" stroke="#000000" points="3025.5874,-143.6799 3029.0873,-153.68 3032.5874,-143.68 3025.5874,-143.6799"/>
</g>
<!-- IonicModule&#45;&gt;SettingsPageModule -->
<g id="edge34" class="edge">
<title>IonicModule&#45;&gt;SettingsPageModule</title>
<path fill="none" stroke="#000000" d="M2564.9248,-122.1223C2564.9248,-124.9729 2564.9248,-127 2564.9248,-127 2564.9248,-127 3195.1273,-127 3195.1273,-127 3195.1273,-127 3195.1273,-143.9561 3195.1273,-143.9561"/>
<polygon fill="#000000" stroke="#000000" points="3191.6274,-143.956 3195.1273,-153.9561 3198.6274,-143.9561 3191.6274,-143.956"/>
</g>
<!-- IonicModule&#45;&gt;TabsPageModule -->
<g id="edge37" class="edge">
<title>IonicModule&#45;&gt;TabsPageModule</title>
<path fill="none" stroke="#000000" d="M2527.0752,-122.0597C2527.0752,-159.0544 2527.0752,-240 2527.0752,-240 2527.0752,-240 1901.0118,-240 1901.0118,-240"/>
<polygon fill="#000000" stroke="#000000" points="1901.0118,-236.5001 1891.0118,-240 1901.0117,-243.5001 1901.0118,-236.5001"/>
</g>
<!-- RouterModule.forChild(args) -->
<g id="node17" class="node">
<title>RouterModule.forChild(args)</title>
<polygon fill="#8dd3c7" stroke="#000000" points="2354.7323,-122 2351.7323,-126 2330.7323,-126 2327.7323,-122 2173.2677,-122 2173.2677,-86 2354.7323,-86 2354.7323,-122"/>
<text text-anchor="middle" x="2264" y="-99.8" font-family="Times,serif" font-size="14.00" fill="#000000">RouterModule.forChild(args)</text>
</g>
<!-- RouterModule.forChild(args)&#45;&gt;CashboxPageModule -->
<g id="edge15" class="edge">
<title>RouterModule.forChild(args)&#45;&gt;CashboxPageModule</title>
<path fill="none" stroke="#000000" d="M2240.2728,-122.2228C2240.2728,-122.2228 2240.2728,-143.7269 2240.2728,-143.7269"/>
<polygon fill="#000000" stroke="#000000" points="2236.7729,-143.7269 2240.2728,-153.7269 2243.7729,-143.727 2236.7729,-143.7269"/>
</g>
<!-- RouterModule.forChild(args)&#45;&gt;MapPageModule -->
<g id="edge20" class="edge">
<title>RouterModule.forChild(args)&#45;&gt;MapPageModule</title>
<path fill="none" stroke="#000000" d="M2354.9171,-104C2360.182,-104 2363.3912,-104 2363.3912,-104 2363.3912,-104 2363.3912,-170 2363.3912,-170 2363.3912,-170 2725.5261,-170 2725.5261,-170"/>
<polygon fill="#000000" stroke="#000000" points="2725.5262,-173.5001 2735.5261,-170 2725.5261,-166.5001 2725.5262,-173.5001"/>
</g>
<!-- RouterModule.forChild(args)&#45;&gt;NotesPageModule -->
<g id="edge25" class="edge">
<title>RouterModule.forChild(args)&#45;&gt;NotesPageModule</title>
<path fill="none" stroke="#000000" d="M2267.4243,-122.1467C2267.4243,-135.7395 2267.4243,-152 2267.4243,-152 2267.4243,-152 2876.646,-152 2876.646,-152 2876.646,-152 2876.646,-152.1846 2876.646,-152.1846"/>
<polygon fill="#000000" stroke="#000000" points="2873.1466,-143.8455 2876.646,-153.8457 2880.1466,-143.8459 2873.1466,-143.8455"/>
</g>
<!-- RouterModule.forChild(args)&#45;&gt;OverviewPageModule -->
<g id="edge30" class="edge">
<title>RouterModule.forChild(args)&#45;&gt;OverviewPageModule</title>
<path fill="none" stroke="#000000" d="M2294.5757,-122.1097C2294.5757,-131.897 2294.5757,-142 2294.5757,-142 2294.5757,-142 3020.3774,-142 3020.3774,-142 3020.3774,-142 3020.3774,-143.8568 3020.3774,-143.8568"/>
<polygon fill="#000000" stroke="#000000" points="3016.8775,-143.8568 3020.3774,-153.8568 3023.8775,-143.8568 3016.8775,-143.8568"/>
</g>
<!-- RouterModule.forChild(args)&#45;&gt;SettingsPageModule -->
<g id="edge35" class="edge">
<title>RouterModule.forChild(args)&#45;&gt;SettingsPageModule</title>
<path fill="none" stroke="#000000" d="M2321.7272,-122.207C2321.7272,-127.5549 2321.7272,-132 2321.7272,-132 2321.7272,-132 3186.4174,-132 3186.4174,-132 3186.4174,-132 3186.4174,-143.8726 3186.4174,-143.8726"/>
<polygon fill="#000000" stroke="#000000" points="3182.9175,-143.8725 3186.4174,-153.8726 3189.9175,-143.8726 3182.9175,-143.8725"/>
</g>
<!-- TabsPageRoutingModule -->
<g id="node28" class="node">
<title>TabsPageRoutingModule</title>
<polygon fill="#8dd3c7" stroke="#000000" points="1788.5912,-190 1785.5912,-194 1764.5912,-194 1761.5912,-190 1629.4088,-190 1629.4088,-154 1788.5912,-154 1788.5912,-190"/>
<text text-anchor="middle" x="1709" y="-167.8" font-family="Times,serif" font-size="14.00" fill="#000000">TabsPageRoutingModule</text>
</g>
<!-- RouterModule.forChild(args)&#45;&gt;TabsPageRoutingModule -->
<g id="edge41" class="edge">
<title>RouterModule.forChild(args)&#45;&gt;TabsPageRoutingModule</title>
<path fill="none" stroke="#000000" d="M2193.2526,-122.2356C2193.2526,-151.5744 2193.2526,-206 2193.2526,-206 2193.2526,-206 1784.7015,-206 1784.7015,-206 1784.7015,-206 1784.7015,-200.1944 1784.7015,-200.1944"/>
<polygon fill="#000000" stroke="#000000" points="1788.2016,-200.1944 1784.7015,-190.1944 1781.2016,-200.1945 1788.2016,-200.1944"/>
</g>
<!-- MapPage -->
<g id="node18" class="node">
<title>MapPage</title>
<polygon fill="#ffffb3" stroke="#000000" points="2826.3711,-122 2757.6289,-122 2757.6289,-86 2826.3711,-86 2826.3711,-122"/>
<text text-anchor="middle" x="2792" y="-99.8" font-family="Times,serif" font-size="14.00" fill="#000000">MapPage</text>
</g>
<!-- MapPage&#45;&gt;MapPageModule -->
<g id="edge16" class="edge">
<title>MapPage&#45;&gt;MapPageModule</title>
<path fill="none" stroke="#000000" d="M2792,-122.2228C2792,-122.2228 2792,-143.7269 2792,-143.7269"/>
<polygon fill="#000000" stroke="#000000" points="2788.5001,-143.7269 2792,-153.7269 2795.5001,-143.727 2788.5001,-143.7269"/>
</g>
<!-- NotesPage -->
<g id="node20" class="node">
<title>NotesPage</title>
<polygon fill="#ffffb3" stroke="#000000" points="2969.8683,-122 2894.1317,-122 2894.1317,-86 2969.8683,-86 2969.8683,-122"/>
<text text-anchor="middle" x="2932" y="-99.8" font-family="Times,serif" font-size="14.00" fill="#000000">NotesPage</text>
</g>
<!-- NotesPage&#45;&gt;NotesPageModule -->
<g id="edge21" class="edge">
<title>NotesPage&#45;&gt;NotesPageModule</title>
<path fill="none" stroke="#000000" d="M2932,-122.2228C2932,-122.2228 2932,-143.7269 2932,-143.7269"/>
<polygon fill="#000000" stroke="#000000" points="2928.5001,-143.7269 2932,-153.7269 2935.5001,-143.727 2928.5001,-143.7269"/>
</g>
<!-- OverviewPage -->
<g id="node22" class="node">
<title>OverviewPage</title>
<polygon fill="#ffffb3" stroke="#000000" points="3136.4062,-122 3037.5938,-122 3037.5938,-86 3136.4062,-86 3136.4062,-122"/>
<text text-anchor="middle" x="3087" y="-99.8" font-family="Times,serif" font-size="14.00" fill="#000000">OverviewPage</text>
</g>
<!-- OverviewPage&#45;&gt;OverviewPageModule -->
<g id="edge26" class="edge">
<title>OverviewPage&#45;&gt;OverviewPageModule</title>
<path fill="none" stroke="#000000" d="M3087,-122.2228C3087,-122.2228 3087,-143.7269 3087,-143.7269"/>
<polygon fill="#000000" stroke="#000000" points="3083.5001,-143.7269 3087,-153.7269 3090.5001,-143.727 3083.5001,-143.7269"/>
</g>
<!-- SettingsPage -->
<g id="node24" class="node">
<title>SettingsPage</title>
<polygon fill="#ffffb3" stroke="#000000" points="3292.326,-122 3203.674,-122 3203.674,-86 3292.326,-86 3292.326,-122"/>
<text text-anchor="middle" x="3248" y="-99.8" font-family="Times,serif" font-size="14.00" fill="#000000">SettingsPage</text>
</g>
<!-- SettingsPage&#45;&gt;SettingsPageModule -->
<g id="edge31" class="edge">
<title>SettingsPage&#45;&gt;SettingsPageModule</title>
<path fill="none" stroke="#000000" d="M3248,-122.2228C3248,-122.2228 3248,-143.7269 3248,-143.7269"/>
<polygon fill="#000000" stroke="#000000" points="3244.5001,-143.7269 3248,-153.7269 3251.5001,-143.727 3244.5001,-143.7269"/>
</g>
<!-- TabsPage -->
<g id="node26" class="node">
<title>TabsPage</title>
<polygon fill="#ffffb3" stroke="#000000" points="1883.4249,-190 1812.5751,-190 1812.5751,-154 1883.4249,-154 1883.4249,-190"/>
<text text-anchor="middle" x="1848" y="-167.8" font-family="Times,serif" font-size="14.00" fill="#000000">TabsPage</text>
</g>
<!-- TabsPage&#45;&gt;TabsPageModule -->
<g id="edge36" class="edge">
<title>TabsPage&#45;&gt;TabsPageModule</title>
<path fill="none" stroke="#000000" d="M1848,-190.2228C1848,-190.2228 1848,-211.7269 1848,-211.7269"/>
<polygon fill="#000000" stroke="#000000" points="1844.5001,-211.7269 1848,-221.7269 1851.5001,-211.727 1844.5001,-211.7269"/>
</g>
<!-- TabsPageRoutingModule&#45;&gt;RouterModule  -->
<g id="edge42" class="edge">
<title>TabsPageRoutingModule&#45;&gt;RouterModule </title>
<path fill="none" stroke="#000000" stroke-dasharray="5,2" d="M1629.2203,-178C1591.6088,-178 1554.8587,-178 1554.8587,-178 1554.8587,-178 1554.8587,-211.7333 1554.8587,-211.7333"/>
<polygon fill="#000000" stroke="#000000" points="1551.3588,-211.7333 1554.8587,-221.7333 1558.3588,-211.7333 1551.3588,-211.7333"/>
</g>
<!-- TabsPageRoutingModule&#45;&gt;TabsPageModule -->
<g id="edge40" class="edge">
<title>TabsPageRoutingModule&#45;&gt;TabsPageModule</title>
<path fill="none" stroke="#000000" d="M1780.8574,-190.2228C1780.8574,-190.2228 1780.8574,-211.7269 1780.8574,-211.7269"/>
<polygon fill="#000000" stroke="#000000" points="1777.3575,-211.7269 1780.8574,-221.7269 1784.3575,-211.727 1777.3575,-211.7269"/>
</g>
</g>
</svg>
